<svg width="146" height="24" viewBox="0 0 146 24" fill="none" xmlns="http://www.w3.org/2000/svg">
<g clip-path="url(#clip0_96_171)">
<path d="M8.1427 8.14281C8.01148 8.27403 7.87209 8.39708 7.72536 8.51114C6.97276 9.09617 6.02706 9.44455 5 9.44455C2.5454 9.44455 0.555557 7.45471 0.555557 5.00011C0.555557 3.97305 0.903936 3.02735 1.48897 2.27475C1.60303 2.12802 1.72608 1.98863 1.8573 1.85741C1.98853 1.72619 2.12792 1.60314 2.27464 1.48908C3.02725 0.904043 3.97294 0.555664 5 0.555664C7.4546 0.555664 9.44445 2.54551 9.44445 5.00011C9.44445 6.02717 9.09607 6.97286 8.51103 7.72547C8.39698 7.8722 8.27392 8.01158 8.1427 8.14281ZM7.71718 6.93161C8.10571 6.38643 8.33334 5.7205 8.33334 5.00011C8.33334 3.15916 6.84095 1.66678 5 1.66678C4.27961 1.66678 3.61369 1.8944 3.0685 2.28293L7.71718 6.93161ZM2.28282 3.0686C1.89429 3.61379 1.66667 4.27972 1.66667 5.00011C1.66667 6.84106 3.15905 8.33344 5 8.33344C5.72039 8.33344 6.38632 8.10582 6.93151 7.71729L2.28282 3.0686Z" fill-rule="evenodd" clip-rule="evenodd" fill="#16150F"/>
<path d="M35.7712 9.77132C35.6138 9.92878 35.4465 10.0764 35.2704 10.2133C34.3673 10.9154 33.2325 11.3334 32 11.3334C29.0545 11.3334 26.6667 8.9456 26.6667 6.00008C26.6667 4.76761 27.0847 3.63277 27.7868 2.72965C27.9236 2.55358 28.0713 2.38631 28.2288 2.22885C28.3862 2.07138 28.5535 1.92371 28.7296 1.78684C29.6327 1.0848 30.7675 0.666748 32 0.666748C34.9455 0.666748 37.3333 3.05456 37.3333 6.00008C37.3333 7.23256 36.9153 8.36739 36.2132 9.27051C36.0764 9.44659 35.9287 9.61385 35.7712 9.77132ZM35.2606 8.31789C35.7268 7.66366 36 6.86455 36 6.00008C36 3.79094 34.2091 2.00008 32 2.00008C31.1355 2.00008 30.3364 2.27323 29.6822 2.73947L35.2606 8.31789ZM28.7394 3.68228C28.2731 4.3365 28 5.13562 28 6.00008C28 8.20922 29.7909 10.0001 32 10.0001C32.8645 10.0001 33.6636 9.72693 34.3178 9.2607L28.7394 3.68228Z" fill-rule="evenodd" clip-rule="evenodd" fill="#16150F"/>
<path d="M66.5255 12.5256C66.3365 12.7145 66.1358 12.8917 65.9245 13.056C64.8408 13.8984 63.479 14.4001 62 14.4001C58.4654 14.4001 55.6 11.5347 55.6 8.0001C55.6 6.52113 56.1017 5.15933 56.9441 4.07558C57.1084 3.86429 57.2856 3.66357 57.4745 3.47461C57.6635 3.28565 57.8642 3.10846 58.0755 2.94421C59.1592 2.10176 60.521 1.6001 62 1.6001C65.5346 1.6001 68.4 4.46548 68.4 8.0001C68.4 9.47907 67.8983 10.8409 67.0559 11.9246C66.8916 12.1359 66.7144 12.3366 66.5255 12.5256ZM65.9127 10.7815C66.4722 9.99639 66.8 9.03746 66.8 8.0001C66.8 5.34913 64.651 3.2001 62 3.2001C60.9626 3.2001 60.0037 3.52788 59.2186 4.08736L65.9127 10.7815ZM58.0873 5.21873C57.5278 6.0038 57.2 6.96274 57.2 8.0001C57.2 10.6511 59.349 12.8001 62 12.8001C63.0374 12.8001 63.9963 12.4723 64.7814 11.9128L58.0873 5.21873Z" fill-rule="evenodd" clip-rule="evenodd" fill="#16150F"/>
<path d="M101.657 15.6569C101.421 15.8931 101.17 16.1146 100.906 16.3199C99.551 17.3729 97.8487 18 96 18C91.5817 18 88 14.4183 88 10C88 8.15129 88.6271 6.44904 89.6801 5.09436C89.8854 4.83024 90.1069 4.57934 90.3431 4.34315C90.5793 4.10695 90.8302 3.88545 91.0944 3.68014C92.449 2.62708 94.1513 2 96 2C100.418 2 104 5.58172 104 10C104 11.8487 103.373 13.551 102.32 14.9056C102.115 15.1698 101.893 15.4207 101.657 15.6569ZM100.891 13.4767C101.59 12.4954 102 11.2967 102 10C102 6.68629 99.3137 4 96 4C94.7033 4 93.5046 4.40973 92.5233 5.10908L100.891 13.4767ZM91.1091 6.52329C90.4097 7.50463 90 8.7033 90 10C90 13.3137 92.6863 16 96 16C97.2967 16 98.4954 15.5903 99.4767 14.8909L91.1091 6.52329Z" fill-rule="evenodd" clip-rule="evenodd" fill="#16150F"/>
<path d="M140.788 18.7881C140.505 19.0716 140.204 19.3374 139.887 19.5837C138.261 20.8474 136.218 21.5999 134 21.5999C128.698 21.5999 124.4 17.3018 124.4 11.9999C124.4 9.78145 125.152 7.73875 126.416 6.11313C126.663 5.7962 126.928 5.49512 127.212 5.21168C127.495 4.92824 127.796 4.66244 128.113 4.41607C129.739 3.1524 131.782 2.3999 134 2.3999C139.302 2.3999 143.6 6.69797 143.6 11.9999C143.6 14.2184 142.847 16.2611 141.584 17.8867C141.337 18.2036 141.072 18.5047 140.788 18.7881ZM139.869 16.172C140.708 14.9943 141.2 13.5559 141.2 11.9999C141.2 8.02345 137.976 4.7999 134 4.7999C132.444 4.7999 131.006 5.29157 129.828 6.1308L139.869 16.172ZM128.131 7.82785C127.292 9.00546 126.8 10.4439 126.8 11.9999C126.8 15.9764 130.024 19.1999 134 19.1999C135.556 19.1999 136.994 18.7082 138.172 17.869L128.131 7.82785Z" fill-rule="evenodd" clip-rule="evenodd" fill="#16150F"/>
</g>
<defs>
<clipPath id="clip0_96_171">
<rect width="146" height="24" fill="white"/>
</clipPath>
</defs>
</svg>
