<svg width="146" height="24" viewBox="0 0 146 24" fill="none" xmlns="http://www.w3.org/2000/svg">
<g clip-path="url(#clip0_96_204)">
<path d="M2.77776 5.00003C2.77776 5.61368 2.2803 6.11114 1.66665 6.11114C1.053 6.11114 0.555542 5.61368 0.555542 5.00003C0.555542 4.38638 1.053 3.88892 1.66665 3.88892C2.2803 3.88892 2.77776 4.38638 2.77776 5.00003Z" fill="#16150F"/>
<path d="M6.1111 5.00003C6.1111 5.61368 5.61364 6.11114 4.99999 6.11114C4.38634 6.11114 3.88888 5.61368 3.88888 5.00003C3.88888 4.38638 4.38634 3.88892 4.99999 3.88892C5.61364 3.88892 6.1111 4.38638 6.1111 5.00003Z" fill="#16150F"/>
<path d="M9.44443 5.00003C9.44443 5.61368 8.94697 6.11114 8.33332 6.11114C7.71967 6.11114 7.22221 5.61368 7.22221 5.00003C7.22221 4.38638 7.71967 3.88892 8.33332 3.88892C8.94697 3.88892 9.44443 4.38638 9.44443 5.00003Z" fill="#16150F"/>
<path d="M29.3333 6.00008C29.3333 6.73646 28.7364 7.33341 28 7.33341C27.2636 7.33341 26.6667 6.73646 26.6667 6.00008C26.6667 5.2637 27.2636 4.66675 28 4.66675C28.7364 4.66675 29.3333 5.2637 29.3333 6.00008Z" fill="#16150F"/>
<path d="M33.3333 6.00008C33.3333 6.73646 32.7364 7.33341 32 7.33341C31.2636 7.33341 30.6667 6.73646 30.6667 6.00008C30.6667 5.2637 31.2636 4.66675 32 4.66675C32.7364 4.66675 33.3333 5.2637 33.3333 6.00008Z" fill="#16150F"/>
<path d="M37.3333 6.00008C37.3333 6.73646 36.7364 7.33341 36 7.33341C35.2636 7.33341 34.6667 6.73646 34.6667 6.00008C34.6667 5.2637 35.2636 4.66675 36 4.66675C36.7364 4.66675 37.3333 5.2637 37.3333 6.00008Z" fill="#16150F"/>
<path d="M58.8 7.9999C58.8 8.88356 58.0837 9.5999 57.2 9.5999C56.3164 9.5999 55.6 8.88356 55.6 7.9999C55.6 7.11625 56.3164 6.3999 57.2 6.3999C58.0837 6.3999 58.8 7.11625 58.8 7.9999Z" fill="#16150F"/>
<path d="M63.6 7.9999C63.6 8.88356 62.8837 9.5999 62 9.5999C61.1164 9.5999 60.4 8.88356 60.4 7.9999C60.4 7.11625 61.1164 6.3999 62 6.3999C62.8837 6.3999 63.6 7.11625 63.6 7.9999Z" fill="#16150F"/>
<path d="M68.4 7.9999C68.4 8.88356 67.6837 9.5999 66.8 9.5999C65.9164 9.5999 65.2 8.88356 65.2 7.9999C65.2 7.11625 65.9164 6.3999 66.8 6.3999C67.6837 6.3999 68.4 7.11625 68.4 7.9999Z" fill="#16150F"/>
<path d="M92 10C92 11.1046 91.1046 12 90 12C88.8954 12 88 11.1046 88 10C88 8.89543 88.8954 8 90 8C91.1046 8 92 8.89543 92 10Z" fill="#16150F"/>
<path d="M98 10C98 11.1046 97.1046 12 96 12C94.8954 12 94 11.1046 94 10C94 8.89543 94.8954 8 96 8C97.1046 8 98 8.89543 98 10Z" fill="#16150F"/>
<path d="M104 10C104 11.1046 103.105 12 102 12C100.895 12 100 11.1046 100 10C100 8.89543 100.895 8 102 8C103.105 8 104 8.89543 104 10Z" fill="#16150F"/>
<path d="M129.2 12.0001C129.2 13.3256 128.125 14.4001 126.8 14.4001C125.475 14.4001 124.4 13.3256 124.4 12.0001C124.4 10.6746 125.475 9.6001 126.8 9.6001C128.125 9.6001 129.2 10.6746 129.2 12.0001Z" fill="#16150F"/>
<path d="M136.4 12.0001C136.4 13.3256 135.325 14.4001 134 14.4001C132.675 14.4001 131.6 13.3256 131.6 12.0001C131.6 10.6746 132.675 9.6001 134 9.6001C135.325 9.6001 136.4 10.6746 136.4 12.0001Z" fill="#16150F"/>
<path d="M143.6 12.0001C143.6 13.3256 142.525 14.4001 141.2 14.4001C139.875 14.4001 138.8 13.3256 138.8 12.0001C138.8 10.6746 139.875 9.6001 141.2 9.6001C142.525 9.6001 143.6 10.6746 143.6 12.0001Z" fill="#16150F"/>
</g>
<defs>
<clipPath id="clip0_96_204">
<rect width="146" height="24" fill="white"/>
</clipPath>
</defs>
</svg>
