<svg width="146" height="24" viewBox="0 0 146 24" fill="none" xmlns="http://www.w3.org/2000/svg">
<g clip-path="url(#clip0_96_233)">
<path d="M2.1567 1.66678V8.33344H2.71226V9.44455H1.87893C1.41869 9.44455 1.04559 9.07146 1.04559 8.61122V1.389C1.04559 0.92876 1.41869 0.555664 1.87893 0.555664H6.00591L7.71226 2.34733V3.889H6.60115V2.79178L5.52972 1.66678H2.1567Z" fill-rule="evenodd" clip-rule="evenodd" fill="#16150F"/>
<path d="M4.93448 1.66678H5.49004V2.77789H6.60115V3.33344H4.93448V1.66678Z" fill-rule="evenodd" clip-rule="evenodd" fill="#16150F"/>
<path d="M8.95445 4.85361H8.67668L8.58029 4.59309L8.95445 4.45466V4.85361ZM8.37866 5.26297C8.3332 5.28033 8.28452 5.29899 8.23301 5.31881C7.90513 5.445 7.46324 5.61825 7.0063 5.8068C6.54867 5.99563 6.07917 6.19848 5.69486 6.38397C5.50254 6.47679 5.33485 6.5637 5.20207 6.64101C5.0636 6.72163 4.9823 6.78099 4.9471 6.81618C4.63595 7.12734 4.55688 7.37608 4.58191 7.59131C4.60911 7.82527 4.7666 8.09748 5.0997 8.43059C5.68588 9.01677 6.63628 9.01677 7.22246 8.43059C7.79232 7.86073 8.09311 6.98398 8.24707 6.21416C8.32117 5.84367 8.3592 5.50871 8.37866 5.26297ZM8.79184 6.32311C8.63135 7.12554 8.30324 8.13549 7.6153 8.82343C6.81216 9.62657 5.51 9.62657 4.70686 8.82342C4.3453 8.46187 4.07917 8.07779 4.03007 7.65546C3.97879 7.2144 4.17076 6.80686 4.55427 6.42335C4.64352 6.33409 4.77823 6.24493 4.92252 6.16091C5.0725 6.07358 5.2543 5.97973 5.45338 5.88364C5.85187 5.69131 6.33275 5.48373 6.79439 5.29324C7.25673 5.10247 7.703 4.92752 8.03347 4.80033C8.19877 4.73671 8.33528 4.68498 8.43053 4.64912C8.47817 4.63119 8.5155 4.61722 8.54097 4.60772L8.5701 4.59687L8.58029 4.59309C8.58029 4.59309 8.58029 4.59309 8.67668 4.85361C8.95445 4.85361 8.95445 4.85361 8.95445 4.85361L8.95445 4.85462L8.95445 4.85654L8.95441 4.86309L8.95411 4.88672C8.95378 4.90704 8.95312 4.93636 8.95183 4.97373C8.94926 5.04846 8.94414 5.15557 8.93398 5.28763C8.9137 5.55136 8.87314 5.91657 8.79184 6.32311Z" fill-rule="evenodd" clip-rule="evenodd" fill="#16150F"/>
<path d="M5.47426 7.52839C6.47675 6.78715 7.61794 5.89838 8.31396 4.8468L8.77723 5.15342C8.01972 6.29791 6.7998 7.23921 5.80456 7.9751C5.71227 8.04334 5.62213 8.10964 5.5345 8.1741C5.14132 8.46334 4.79857 8.71547 4.53749 8.93904C4.37832 9.07535 4.26158 9.19107 4.18649 9.28828C4.10703 9.39115 4.10115 9.43895 4.10115 9.44455H3.54559C3.54559 9.25408 3.64186 9.08456 3.74683 8.94866C3.85618 8.80711 4.00616 8.66262 4.17614 8.51706C4.4544 8.27877 4.8186 8.01093 5.21249 7.72126C5.29852 7.65798 5.38598 7.59367 5.47426 7.52839Z" fill-rule="evenodd" clip-rule="evenodd" fill="#16150F"/>
<path d="M28.588 2.00008V10.0001H29.2547V11.3334H28.2547C27.7024 11.3334 27.2547 10.8857 27.2547 10.3334V1.66675C27.2547 1.11446 27.7024 0.666748 28.2547 0.666748H33.2071L35.2547 2.81675V4.66675H33.9214V3.35008L32.6357 2.00008H28.588Z" fill-rule="evenodd" clip-rule="evenodd" fill="#16150F"/>
<path d="M31.9214 2.00008H32.588V3.33341H33.9214V4.00008H31.9214V2.00008Z" fill-rule="evenodd" clip-rule="evenodd" fill="#16150F"/>
<path d="M36.7453 5.82428H36.412L36.2963 5.51166L36.7453 5.34554V5.82428ZM36.0544 6.31551C35.9998 6.33635 35.9414 6.35874 35.8796 6.38253C35.4861 6.53396 34.9559 6.74186 34.4075 6.96811C33.8584 7.1947 33.295 7.43813 32.8338 7.66071C32.603 7.7721 32.4018 7.87639 32.2425 7.96916C32.0763 8.06591 31.9787 8.13714 31.9365 8.17937C31.5631 8.55276 31.4682 8.85125 31.4983 9.10952C31.5309 9.39028 31.7199 9.71693 32.1196 10.1167C32.823 10.8201 33.9635 10.8201 34.6669 10.1167C35.3508 9.43283 35.7117 8.38072 35.8965 7.45694C35.9854 7.01236 36.031 6.6104 36.0544 6.31551ZM36.5502 7.58768C36.3576 8.5506 35.9639 9.76254 35.1383 10.5881C34.1746 11.5518 32.612 11.5518 31.6482 10.5881C31.2144 10.1542 30.895 9.6933 30.8361 9.18651C30.7745 8.65723 31.0049 8.16818 31.4651 7.70797C31.5722 7.60086 31.7339 7.49386 31.907 7.39304C32.087 7.28825 32.3052 7.17562 32.544 7.06032C33.0222 6.82952 33.5993 6.58043 34.1533 6.35184C34.7081 6.12292 35.2436 5.91297 35.6401 5.76035C35.8385 5.684 36.0023 5.62192 36.1166 5.57889C36.1738 5.55737 36.2186 5.54061 36.2492 5.52921L36.2841 5.5162L36.2963 5.51166C36.2963 5.51166 36.2963 5.51166 36.412 5.82428C36.7453 5.82428 36.7453 5.82428 36.7453 5.82428L36.7453 5.82549L36.7453 5.8278L36.7453 5.83566L36.7449 5.86402C36.7445 5.8884 36.7437 5.92358 36.7422 5.96843C36.7391 6.0581 36.733 6.18664 36.7208 6.34511C36.6964 6.66159 36.6478 7.09984 36.5502 7.58768Z" fill-rule="evenodd" clip-rule="evenodd" fill="#16150F"/>
<path d="M32.5691 9.03402C33.7721 8.14453 35.1415 7.07801 35.9767 5.8161L36.5327 6.18406C35.6237 7.55745 34.1597 8.68701 32.9655 9.57007C32.8547 9.65196 32.7465 9.73152 32.6414 9.80887C32.1696 10.156 31.7583 10.4585 31.445 10.7268C31.254 10.8904 31.1139 11.0292 31.0238 11.1459C30.9284 11.2693 30.9214 11.3267 30.9214 11.3334H30.2547C30.2547 11.1048 30.3702 10.9014 30.4962 10.7383C30.6274 10.5685 30.8074 10.3951 31.0114 10.2204C31.3453 9.93448 31.7823 9.61307 32.255 9.26546C32.3582 9.18953 32.4632 9.11235 32.5691 9.03402Z" fill-rule="evenodd" clip-rule="evenodd" fill="#16150F"/>
<path d="M57.9056 3.2001V12.8001H58.7056V14.4001H57.5056C56.8429 14.4001 56.3056 13.8628 56.3056 13.2001V2.8001C56.3056 2.13736 56.8429 1.6001 57.5056 1.6001H63.4485L65.9056 4.1801V6.4001H64.3056V4.8201L62.7627 3.2001H57.9056Z" fill-rule="evenodd" clip-rule="evenodd" fill="#16150F"/>
<path d="M61.9056 3.2001H62.7056V4.8001H64.3056V5.6001H61.9056V3.2001Z" fill-rule="evenodd" clip-rule="evenodd" fill="#16150F"/>
<path d="M67.6944 7.78914H67.2944L67.1556 7.41399L67.6944 7.21465V7.78914ZM66.8652 8.37862C66.7998 8.40362 66.7297 8.43049 66.6555 8.45903C66.1833 8.64075 65.547 8.89023 64.889 9.16173C64.23 9.43364 63.5539 9.72575 63.0006 9.99285C62.7236 10.1265 62.4821 10.2517 62.2909 10.363C62.0915 10.4791 61.9745 10.5646 61.9238 10.6152C61.4757 11.0633 61.3619 11.4215 61.3979 11.7314C61.4371 12.0683 61.6638 12.4603 62.1435 12.94C62.9876 13.7841 64.3562 13.7841 65.2003 12.94C66.0209 12.1194 66.454 10.8569 66.6757 9.74833C66.7824 9.21483 66.8372 8.73248 66.8652 8.37862ZM67.4602 9.90522C67.2291 11.0607 66.7566 12.515 65.766 13.5057C64.6095 14.6622 62.7344 14.6622 61.5778 13.5057C61.0572 12.985 60.6739 12.432 60.6032 11.8238C60.5294 11.1887 60.8058 10.6018 61.3581 10.0496C61.4866 9.92104 61.6806 9.79264 61.8884 9.67165C62.1044 9.5459 62.3661 9.41075 62.6528 9.27238C63.2266 8.99542 63.9191 8.69652 64.5839 8.42221C65.2496 8.1475 65.8923 7.89557 66.3681 7.71242C66.6062 7.6208 66.8027 7.54631 66.9399 7.49467C67.0085 7.46885 67.0623 7.44874 67.099 7.43505L67.1409 7.41944L67.1556 7.41399C67.1556 7.41399 67.1556 7.41399 67.2944 7.78914C67.6944 7.78914 67.6944 7.78914 67.6944 7.78914L67.6944 7.79059L67.6944 7.79335L67.6943 7.80279L67.6939 7.83682C67.6934 7.86608 67.6924 7.90829 67.6906 7.96212C67.6869 8.06972 67.6795 8.22397 67.6649 8.41413C67.6357 8.7939 67.5773 9.31981 67.4602 9.90522Z" fill-rule="evenodd" clip-rule="evenodd" fill="#16150F"/>
<path d="M62.6829 11.6408C64.1265 10.5734 65.7698 9.29361 66.772 7.77933L67.4392 8.22087C66.3483 9.86894 64.5917 11.2244 63.1585 12.2841C63.0256 12.3823 62.8958 12.4778 62.7696 12.5706C62.2034 12.9871 61.7099 13.3502 61.3339 13.6722C61.1047 13.8684 60.9366 14.0351 60.8285 14.1751C60.7141 14.3232 60.7056 14.392 60.7056 14.4001H59.9056C59.9056 14.1258 60.0442 13.8817 60.1954 13.686C60.3528 13.4822 60.5688 13.2741 60.8136 13.0645C61.2143 12.7214 61.7387 12.3357 62.3059 11.9186C62.4298 11.8274 62.5558 11.7348 62.6829 11.6408Z" fill-rule="evenodd" clip-rule="evenodd" fill="#16150F"/>
<path d="M90.882 4V16H91.882V18H90.382C89.5536 18 88.882 17.3284 88.882 16.5V3.5C88.882 2.67157 89.5536 2 90.382 2H97.8106L100.882 5.225V8H98.882V6.025L96.9534 4H90.882Z" fill-rule="evenodd" clip-rule="evenodd" fill="#16150F"/>
<path d="M95.882 4H96.882V6H98.882V7H95.882V4Z" fill-rule="evenodd" clip-rule="evenodd" fill="#16150F"/>
<path d="M103.118 9.7363H102.618L102.444 9.26737L103.118 9.01819V9.7363ZM102.082 10.4731C102 10.5044 101.912 10.538 101.819 10.5737C101.229 10.8008 100.434 11.1127 99.6113 11.452C98.7876 11.7919 97.9424 12.1571 97.2507 12.4909C96.9045 12.658 96.6027 12.8145 96.3637 12.9536C96.1144 13.0987 95.9681 13.2056 95.9047 13.2689C95.3447 13.829 95.2023 14.2768 95.2474 14.6642C95.2963 15.0853 95.5798 15.5753 96.1794 16.1749C97.2345 17.23 98.9453 17.23 100 16.1749C101.026 15.1491 101.568 13.571 101.845 12.1853C101.978 11.5184 102.047 10.9155 102.082 10.4731ZM102.825 12.3814C102.536 13.8258 101.946 15.6437 100.707 16.882C99.2618 18.3276 96.918 18.3276 95.4723 16.882C94.8215 16.2312 94.3424 15.5398 94.2541 14.7796C94.1618 13.9857 94.5073 13.2521 95.1976 12.5618C95.3583 12.4012 95.6008 12.2407 95.8605 12.0894C96.1305 11.9322 96.4577 11.7633 96.816 11.5904C97.5333 11.2442 98.3989 10.8705 99.2299 10.5276C100.062 10.1843 100.865 9.86933 101.46 9.6404C101.758 9.52588 102.003 9.43276 102.175 9.36821C102.261 9.33594 102.328 9.3108 102.374 9.29369L102.426 9.27417L102.444 9.26737C102.444 9.26737 102.444 9.26737 102.618 9.7363C103.118 9.7363 103.118 9.7363 103.118 9.7363L103.118 9.73811L103.118 9.74157L103.118 9.75336L103.117 9.7959C103.117 9.83248 103.116 9.88524 103.113 9.95252C103.109 10.087 103.099 10.2798 103.081 10.5175C103.045 10.9923 102.972 11.6496 102.825 12.3814Z" fill-rule="evenodd" clip-rule="evenodd" fill="#16150F"/>
<path d="M96.8536 14.5509C98.6581 13.2167 100.712 11.6169 101.965 9.72404L102.799 10.276C101.435 12.3361 99.2396 14.0304 97.4482 15.355C97.282 15.4778 97.1198 15.5972 96.9621 15.7132C96.2543 16.2338 95.6374 16.6877 95.1674 17.0901C94.8809 17.3354 94.6708 17.5437 94.5356 17.7187C94.3926 17.9039 94.382 17.9899 94.382 18H93.382C93.382 17.6572 93.5553 17.352 93.7442 17.1074C93.9411 16.8526 94.211 16.5925 94.517 16.3305C95.0179 15.9016 95.6734 15.4195 96.3824 14.8981C96.5373 14.7842 96.6947 14.6684 96.8536 14.5509Z" fill-rule="evenodd" clip-rule="evenodd" fill="#16150F"/>
<path d="M127.858 4.7999V19.1999H129.058V21.5999H127.258C126.264 21.5999 125.458 20.794 125.458 19.7999V4.1999C125.458 3.20579 126.264 2.3999 127.258 2.3999H136.173L139.858 6.2699V9.5999H137.458V7.2299L135.144 4.7999H127.858Z" fill-rule="evenodd" clip-rule="evenodd" fill="#16150F"/>
<path d="M133.858 4.7999H135.058V7.1999H137.458V8.3999H133.858V4.7999Z" fill-rule="evenodd" clip-rule="evenodd" fill="#16150F"/>
<path d="M142.542 11.6835H141.942L141.733 11.1207L142.542 10.8217V11.6835ZM141.298 12.5677C141.2 12.6052 141.095 12.6455 140.983 12.6883C140.275 12.9609 139.321 13.3351 138.334 13.7424C137.345 14.1502 136.331 14.5884 135.501 14.989C135.085 15.1895 134.723 15.3773 134.436 15.5442C134.137 15.7184 133.962 15.8466 133.886 15.9226C133.214 16.5947 133.043 17.132 133.097 17.5969C133.156 18.1023 133.496 18.6902 134.215 19.4097C135.481 20.6759 137.534 20.6759 138.8 19.4097C140.031 18.1788 140.681 16.2851 141.014 14.6222C141.174 13.822 141.256 13.0985 141.298 12.5677ZM142.19 14.8576C141.844 16.5908 141.135 18.7723 139.649 20.2583C137.914 21.9931 135.102 21.9931 133.367 20.2583C132.586 19.4773 132.011 18.6477 131.905 17.7355C131.794 16.7828 132.209 15.9025 133.037 15.0741C133.23 14.8813 133.521 14.6887 133.833 14.5072C134.157 14.3186 134.549 14.1159 134.979 13.9083C135.84 13.4929 136.879 13.0445 137.876 12.6331C138.874 12.221 139.838 11.8431 140.552 11.5684C140.909 11.431 141.204 11.3192 141.41 11.2418C141.513 11.203 141.593 11.1729 141.648 11.1523L141.711 11.1289L141.733 11.1207C141.733 11.1207 141.733 11.1207 141.942 11.6835C142.542 11.6835 142.542 11.6835 142.542 11.6835L142.542 11.6856L142.542 11.6898L142.541 11.7039L142.541 11.755C142.54 11.7989 142.539 11.8622 142.536 11.9429C142.53 12.1043 142.519 12.3357 142.497 12.6209C142.454 13.1906 142.366 13.9795 142.19 14.8576Z" fill-rule="evenodd" clip-rule="evenodd" fill="#16150F"/>
<path d="M135.024 17.461C137.19 15.8599 139.655 13.9402 141.158 11.6687L142.159 12.3311C140.523 14.8032 137.888 16.8364 135.738 18.4259C135.538 18.5733 135.344 18.7165 135.154 18.8557C134.305 19.4805 133.565 20.0251 133.001 20.508C132.657 20.8024 132.405 21.0524 132.243 21.2624C132.071 21.4845 132.058 21.5878 132.058 21.5999H130.858C130.858 21.1885 131.066 20.8223 131.293 20.5288C131.529 20.223 131.853 19.9109 132.22 19.5965C132.821 19.0818 133.608 18.5033 134.459 17.8776C134.645 17.7409 134.834 17.602 135.024 17.461Z" fill-rule="evenodd" clip-rule="evenodd" fill="#16150F"/>
</g>
<defs>
<clipPath id="clip0_96_233">
<rect width="146" height="24" fill="white"/>
</clipPath>
</defs>
</svg>
