<svg width="146" height="24" viewBox="0 0 146 24" fill="none" xmlns="http://www.w3.org/2000/svg">
<g clip-path="url(#clip0_96_242)">
<path d="M5 1.11108H8.33334C8.64016 1.11108 8.88889 1.35981 8.88889 1.66664V4.99997H7.77778V3.00787L5.09436 5.69129L4.30869 4.90561L6.99211 2.2222H5V1.11108Z" fill-rule="evenodd" clip-rule="evenodd" fill="#16150F"/>
<path d="M1.11111 2.22219C1.11111 1.60855 1.60858 1.11108 2.22223 1.11108H3.33334V2.2222L2.22223 2.22219V7.77775H7.77778V6.66664H8.88889V7.77775C8.88889 8.3914 8.39143 8.88886 7.77778 8.88886H2.22223C1.60858 8.88886 1.11111 8.3914 1.11111 7.77775V2.22219Z" fill-rule="evenodd" clip-rule="evenodd" fill="#16150F"/>
<path d="M32 1.33325H36C36.3682 1.33325 36.6667 1.63173 36.6667 1.99992V5.99992H35.3333V3.60939L32.1132 6.8295L31.1704 5.88669L34.3905 2.66659H32V1.33325Z" fill-rule="evenodd" clip-rule="evenodd" fill="#16150F"/>
<path d="M27.3333 2.66659C27.3333 1.93021 27.9303 1.33325 28.6667 1.33325H30V2.66659L28.6667 2.66659V9.33325H35.3333V7.99992H36.6667V9.33325C36.6667 10.0696 36.0697 10.6666 35.3333 10.6666H28.6667C27.9303 10.6666 27.3333 10.0696 27.3333 9.33325V2.66659Z" fill-rule="evenodd" clip-rule="evenodd" fill="#16150F"/>
<path d="M62 2.3999H66.8C67.2418 2.3999 67.6 2.75807 67.6 3.1999V7.9999H66V5.13127L62.1359 8.9954L61.0045 7.86403L64.8686 3.9999H62V2.3999Z" fill-rule="evenodd" clip-rule="evenodd" fill="#16150F"/>
<path d="M56.4 3.9999C56.4 3.11625 57.1163 2.3999 58 2.3999H59.6V3.9999L58 3.9999V11.9999H66V10.3999H67.6V11.9999C67.6 12.8836 66.8836 13.5999 66 13.5999H58C57.1163 13.5999 56.4 12.8836 56.4 11.9999V3.9999Z" fill-rule="evenodd" clip-rule="evenodd" fill="#16150F"/>
<path d="M96 3H102C102.552 3 103 3.44772 103 4V10H101V6.41421L96.1698 11.2444L94.7556 9.83015L99.5858 5H96V3Z" fill-rule="evenodd" clip-rule="evenodd" fill="#16150F"/>
<path d="M89 5C89 3.89543 89.8954 3 91 3H93V5L91 5V15H101V13H103V15C103 16.1046 102.105 17 101 17H91C89.8954 17 89 16.1046 89 15V5Z" fill-rule="evenodd" clip-rule="evenodd" fill="#16150F"/>
<path d="M134 3.6001H141.2C141.863 3.6001 142.4 4.13736 142.4 4.8001V12.0001H140V7.69715L134.204 13.4933L132.507 11.7963L138.303 6.0001H134V3.6001Z" fill-rule="evenodd" clip-rule="evenodd" fill="#16150F"/>
<path d="M125.6 6.0001C125.6 4.67461 126.675 3.6001 128 3.6001H130.4V6.0001L128 6.0001V18.0001H140V15.6001H142.4V18.0001C142.4 19.3256 141.325 20.4001 140 20.4001H128C126.675 20.4001 125.6 19.3256 125.6 18.0001V6.0001Z" fill-rule="evenodd" clip-rule="evenodd" fill="#16150F"/>
</g>
<defs>
<clipPath id="clip0_96_242">
<rect width="146" height="24" fill="white"/>
</clipPath>
</defs>
</svg>
