<svg width="195" height="177" viewBox="0 0 195 177" fill="none" xmlns="http://www.w3.org/2000/svg">
<path d="M173.974 7.05675C168.028 2.50395 160.688 -0.933892 153.022 0.227539C142.987 1.34251 132.86 1.52835 122.779 1.94647C107.866 2.68978 94.3931 9.89064 79.852 12.4458C61.1762 16.3017 42.7792 22.0624 25.9152 31.0751C17.6923 35.7673 9.00479 40.5988 3.42992 48.4966C-2.37723 57.0447 0.642491 67.7763 2.03621 77.2071C7.51816 105.221 14.2545 133.838 29.5389 158.321C34.3704 166.591 43.4296 172.305 53.1391 171.933C69.7708 173.188 82.8717 161.155 98.2955 157.439C104.614 164.221 109.863 173.745 119.341 176.161C126.402 169.332 125.891 158.6 125.427 149.634C135.972 146.01 146.89 143.455 157.11 138.809C167.47 134.582 179.038 130.633 185.682 120.923C193.208 109.309 195.902 94.9538 194.276 81.2954C192 63.0377 188.701 44.9194 183.359 27.3121C181.082 20.2971 180.2 11.9348 173.974 7.05675ZM184.009 65.5464C187.122 81.2954 189.491 98.5774 181.454 113.304C174.625 125.105 160.595 128.868 148.98 134.117C138.992 138.856 127.564 139.553 117.715 144.524C115.763 150.563 116.414 157.067 116.089 163.292C110.282 158.972 106.193 152.561 99.8751 149.03C87.7033 149.773 77.1111 156.463 65.9613 160.644C55.5085 164.547 41.85 161.759 36.2287 151.399C19.7364 124.919 11.7922 93.9317 6.91421 63.3629C4.49844 53.514 13.7434 47.1029 20.7585 42.3178C44.4981 27.1727 72.1401 19.1356 99.8286 15.0938C117.622 9.6119 136.298 11.2844 154.555 9.79773C162.081 9.47253 171.373 13.1891 173.092 21.2727C177.412 35.8602 181.826 50.4942 184.009 65.5464Z" fill="#16150F"/>
<path d="M123.568 35.7208C112.651 38.9263 107.912 50.4477 103.917 60.0179C99.9216 51.5162 94.7184 41.6208 84.5907 39.5767C71.6756 37.9043 57.0416 44.8728 52.4887 57.6486C46.6351 70.796 51.5131 86.4056 61.455 96.1616C73.441 107.776 89.6545 113.118 104.753 119.344C109.538 121.063 112.651 125.151 115.949 128.775C118.83 123.85 121.338 118.786 123.568 113.537C130.63 96.9514 139.689 81.0166 143.87 63.3164C145.357 56.5336 145.961 48.6823 141.594 42.7823C137.552 37.3932 130.351 33.2121 123.568 35.7208Z" fill="#16150F"/>
</svg>
